<svg width="49" height="37" viewBox="0 0 49 37" fill="none" xmlns="http://www.w3.org/2000/svg">
<g filter="url(#filter0_d_20531_834)">
<path d="M10.0319 23V7.49H16.7639C18.4652 7.49 19.7779 7.90067 20.7019 8.722C21.6259 9.52867 22.0879 10.6653 22.0879 12.132C22.0879 13.2907 21.7872 14.2513 21.1859 15.014C20.5846 15.762 19.7192 16.268 18.5899 16.532C19.3379 16.7667 19.9539 17.3313 20.4379 18.226L23.0339 23H19.9319L17.2479 18.05C16.9839 17.566 16.6686 17.236 16.3019 17.06C15.9499 16.884 15.4952 16.796 14.9379 16.796H12.8479V23H10.0319ZM12.8479 14.706H16.2799C18.3332 14.706 19.3599 13.87 19.3599 12.198C19.3599 10.5407 18.3332 9.712 16.2799 9.712H12.8479V14.706ZM31.5599 23.22C29.4333 23.22 27.8053 22.67 26.6759 21.57C25.5613 20.4553 25.0039 18.8127 25.0039 16.642V7.49H27.8199V16.62C27.8199 18.0133 28.1353 19.062 28.7659 19.766C29.4113 20.4553 30.3426 20.8 31.5599 20.8C34.0386 20.8 35.2779 19.4067 35.2779 16.62V7.49H38.0719V16.642C38.0719 18.8127 37.5219 20.4553 36.4219 21.57C35.3219 22.67 33.7013 23.22 31.5599 23.22Z" fill="#5ED3F3"/>
</g>
<defs>
<filter id="filter0_d_20531_834" x="-2" y="-7" width="52" height="52" filterUnits="userSpaceOnUse" color-interpolation-filters="sRGB">
<feFlood flood-opacity="0" result="BackgroundImageFix"/>
<feColorMatrix in="SourceAlpha" type="matrix" values="0 0 0 0 0 0 0 0 0 0 0 0 0 0 0 0 0 0 127 0" result="hardAlpha"/>
<feOffset dy="3"/>
<feGaussianBlur stdDeviation="5"/>
<feComposite in2="hardAlpha" operator="out"/>
<feColorMatrix type="matrix" values="0 0 0 0 0.0627451 0 0 0 0 0.215686 0 0 0 0 0.639216 0 0 0 0.6 0"/>
<feBlend mode="normal" in2="BackgroundImageFix" result="effect1_dropShadow_20531_834"/>
<feBlend mode="normal" in="SourceGraphic" in2="effect1_dropShadow_20531_834" result="shape"/>
</filter>
</defs>
</svg>
