<svg width="38" height="38" viewBox="0 0 38 38" fill="none" xmlns="http://www.w3.org/2000/svg">
<g filter="url(#filter0_d_20531_815)">
<path fill-rule="evenodd" clip-rule="evenodd" d="M10 23.7143V8.28571C10 7.57563 10.5756 7 11.2857 7H26.7143C27.4244 7 28 7.57563 28 8.28571V23.7143C28 24.4244 27.4244 25 26.7143 25H11.2857C10.5756 25 10 24.4244 10 23.7143ZM20.2857 10.0714C20.2857 9.79529 20.5096 9.57143 20.7857 9.57143H24.9286C25.2047 9.57143 25.4286 9.79529 25.4286 10.0714V14.2143C25.4286 14.4904 25.2047 14.7143 24.9286 14.7143H20.7857C20.5096 14.7143 20.2857 14.4904 20.2857 14.2143V10.0714ZM20.2857 17.7857C20.2857 17.5096 20.5096 17.2857 20.7857 17.2857H24.9286C25.2047 17.2857 25.4286 17.5096 25.4286 17.7857V21.9286C25.4286 22.2047 25.2047 22.4286 24.9286 22.4286H20.7857C20.5096 22.4286 20.2857 22.2047 20.2857 21.9286V17.7857ZM17.7143 10.0714C17.7143 9.79529 17.4904 9.57143 17.2143 9.57143H13.0714C12.7953 9.57143 12.5714 9.79529 12.5714 10.0714V14.2143C12.5714 14.4904 12.7953 14.7143 13.0714 14.7143L17.2143 14.7143C17.4904 14.7143 17.7143 14.4904 17.7143 14.2143V10.0714ZM17.7143 21.9286C17.7143 22.2047 17.4904 22.4286 17.2143 22.4286L13.0714 22.4286C12.7953 22.4286 12.5714 22.2047 12.5714 21.9286V17.7857C12.5714 17.5096 12.7953 17.2857 13.0714 17.2857L17.2143 17.2857C17.4904 17.2857 17.7143 17.5096 17.7143 17.7857V21.9286Z" fill="#5ED3F3"/>
</g>
<defs>
<filter id="filter0_d_20531_815" x="-7" y="-7" width="52" height="52" filterUnits="userSpaceOnUse" color-interpolation-filters="sRGB">
<feFlood flood-opacity="0" result="BackgroundImageFix"/>
<feColorMatrix in="SourceAlpha" type="matrix" values="0 0 0 0 0 0 0 0 0 0 0 0 0 0 0 0 0 0 127 0" result="hardAlpha"/>
<feOffset dy="3"/>
<feGaussianBlur stdDeviation="5"/>
<feComposite in2="hardAlpha" operator="out"/>
<feColorMatrix type="matrix" values="0 0 0 0 0.0627451 0 0 0 0 0.215686 0 0 0 0 0.639216 0 0 0 0.6 0"/>
<feBlend mode="normal" in2="BackgroundImageFix" result="effect1_dropShadow_20531_815"/>
<feBlend mode="normal" in="SourceGraphic" in2="effect1_dropShadow_20531_815" result="shape"/>
</filter>
</defs>
</svg>
